# Blender 4.1.1
# www.blender.org
o stones
v 10.291462 3.625832 -0.015035
v 10.326545 3.618900 -0.005151
v 10.300220 3.613463 0.017463
v 10.292566 3.633053 0.018895
v 10.307978 3.626532 0.018267
v 10.308240 3.612727 -0.007448
v 10.312480 3.649730 -0.008216
v 12.535504 1.801387 -0.006682
v 12.543139 1.792273 0.000876
v 12.533399 1.778390 -0.002438
v 12.525209 1.796261 0.006061
v 12.537426 1.799117 0.004306
v 12.521897 1.782662 0.008378
v 12.519032 1.786636 -0.003598
v 2.567554 -0.964793 -0.009028
v 2.576449 -0.927999 -0.007754
v 2.590090 -0.946904 -0.010548
v 2.568802 -0.963535 0.013875
v 2.583555 -0.942016 0.013900
v 2.580470 -0.924433 -0.000032
v 2.547433 -0.952526 -0.000054
v 8.801634 1.515612 -0.012720
v 8.802734 1.537239 0.000819
v 8.833123 1.542952 -0.004199
v 8.820690 1.509511 0.011111
v 8.801312 1.521181 0.007147
v 8.842010 1.523068 0.015920
v 8.841470 1.514072 -0.005736
v 12.652537 0.089209 -0.016330
v 12.660275 0.057604 -0.001986
v 12.644139 0.081060 0.015985
v 12.658033 0.095729 0.015823
v 12.658591 0.079775 0.017495
v 12.647627 0.070529 -0.006522
v 12.681520 0.081710 -0.007559
vn 0.6399 -0.4193 0.6440
vn -0.5627 -0.8115 -0.1572
vn 0.7766 0.4025 0.4846
vn 0.3170 0.6861 0.6549
vn 0.0117 -0.0683 0.9976
vn 0.2767 0.0307 -0.9605
vn 0.2102 -0.2742 -0.9384
vn -0.9232 -0.3686 0.1085
vn 0.3029 -0.9447 0.1254
vn -0.7283 0.6747 -0.1199
vn -0.6705 0.6939 -0.2626
vn 0.5585 -0.1997 -0.8051
vn 0.1083 0.1413 0.9840
vn 0.3843 -0.1367 0.9130
vn -0.0235 -0.1793 -0.9835
vn -0.9107 0.2744 0.3089
vn -0.4801 -0.8604 -0.1707
vn 0.4821 -0.5085 0.7134
vn 0.7674 0.6412 -0.0017
vn -0.1901 0.9544 0.2303
vn -0.2495 0.0937 -0.9638
vn 0.6221 -0.7829 0.0091
vn -0.6477 0.7617 -0.0145
vn -0.4351 0.5110 0.7413
vn -0.4947 -0.8659 0.0745
vn -0.4164 0.2844 0.8636
vn 0.7823 -0.5366 0.3164
vn 0.6233 0.5341 -0.5712
vn 0.9317 0.3115 0.1868
vn 0.0070 -0.9674 -0.2532
vn -0.2338 0.5245 -0.8187
vn -0.2100 -0.0165 0.9776
vn -0.2120 0.3745 0.9027
vn 0.1756 0.1029 -0.9791
vn 0.4515 -0.8280 0.3327
vn 0.9491 0.2818 -0.1407
vn -0.0164 0.7075 0.7065
vn -0.9966 0.0737 -0.0368
vn -0.5359 -0.8152 0.2198
vn -0.1359 -0.6597 0.7391
vn -0.9663 0.1408 -0.2156
vn 0.6728 -0.4588 0.5803
vn 0.7306 0.0964 0.6760
vn -0.0946 0.1005 0.9904
vn 0.1802 -0.3695 -0.9116
vn -0.1250 -0.4353 -0.8915
vn -0.7260 0.6876 -0.0153
vn -0.7342 -0.6515 0.1910
vn 0.3105 0.9199 -0.2396
vt 0.807650 0.359376
vt 0.769563 0.389301
vt 0.731064 0.325408
vt 0.719749 0.367366
vt 0.702290 0.411285
vt 0.770541 0.281845
vt 0.718433 0.253523
vt 0.767876 0.220710
vt 0.816366 0.393825
vt 0.690308 0.336210
vt 0.645917 0.356585
vt 0.768877 0.444347
vt 0.708229 0.211586
vt 0.461504 0.541313
vt 0.503924 0.585351
vt 0.460250 0.592856
vt 0.489732 0.458297
vt 0.478393 0.495849
vt 0.460250 0.435709
vt 0.505159 0.534970
vt 0.549955 0.525576
vt 0.542451 0.548003
vt 0.549955 0.503150
vt 0.415397 0.525738
vt 0.451141 0.503150
vt 0.456443 0.536252
vt 0.505103 0.480723
vt 0.493119 0.435870
vt 0.504122 0.413444
vt 0.796438 0.241479
vt 0.796438 0.222971
vt 0.822843 0.213337
vt 0.817597 0.241479
vt 0.852225 0.262006
vt 0.827216 0.269590
vt 0.826623 0.236635
vt 0.832879 0.175654
vt 0.841396 0.211108
vt 0.824548 0.211663
vt 0.852659 0.192456
vt 0.827216 0.157146
vt 0.852659 0.159306
vt 0.852984 0.234480
s 0
f 5/1/1 3/2/1 2/3/1
f 6/4/2 3/2/2 1/5/2
f 5/6/3 2/3/3 7/7/3
f 7/7/4 4/8/4 5/6/4
f 5/1/5 4/9/5 3/2/5
f 2/10/6 1/5/6 7/11/6
f 2/3/7 6/4/7 1/5/7
f 1/5/8 3/2/8 4/12/8
f 2/3/9 3/2/9 6/4/9
f 1/13/10 4/8/10 7/7/10
f 14/14/11 11/15/11 8/16/11
f 9/17/12 10/18/12 8/19/12
f 13/20/13 12/21/13 11/22/13
f 9/23/14 12/21/14 13/20/14
f 8/24/15 10/25/15 14/26/15
f 14/14/16 13/20/16 11/15/16
f 10/18/17 13/20/17 14/26/17
f 9/17/18 13/27/18 10/18/18
f 12/28/19 9/17/19 8/19/19
f 8/19/20 11/29/20 12/28/20
f 15/30/21 21/31/21 16/32/21 17/33/21
f 18/34/22 15/35/22 17/36/22
f 21/37/23 20/38/23 16/39/23
f 19/40/24 20/38/24 21/37/24
f 15/41/25 18/42/25 21/37/25
f 18/42/26 19/40/26 21/37/26
f 17/36/27 19/43/27 18/34/27
f 16/39/28 20/38/28 17/36/28
f 20/38/29 19/43/29 17/36/29
f 28/14/30 25/15/30 22/16/30
f 23/17/31 24/18/31 22/19/31
f 27/20/32 26/21/32 25/22/32
f 23/23/33 26/21/33 27/20/33
f 22/24/34 24/25/34 28/26/34
f 28/14/35 27/20/35 25/15/35
f 24/18/36 27/20/36 28/26/36
f 23/17/37 27/27/37 24/18/37
f 26/28/38 23/17/38 22/19/38
f 22/19/39 25/29/39 26/28/39
f 33/1/40 31/2/40 30/3/40
f 34/4/41 31/2/41 29/5/41
f 33/6/42 30/3/42 35/7/42
f 35/7/43 32/8/43 33/6/43
f 33/1/44 32/9/44 31/2/44
f 30/10/45 29/5/45 35/11/45
f 30/3/46 34/4/46 29/5/46
f 29/5/47 31/2/47 32/12/47
f 30/3/48 31/2/48 34/4/48
f 29/13/49 32/8/49 35/7/49
